<svg xmlns="http://www.w3.org/2000/svg" xmlns:xlink="http://www.w3.org/1999/xlink" viewBox="0 0 750 500"><defs><linearGradient id="linear-gradient" x1="336" y1="94.98" x2="484.11" y2="94.98" gradientUnits="userSpaceOnUse"><stop offset="0" stop-color="#7fcbd0" stop-opacity="0"></stop><stop offset=".54" stop-color="#7fcbd0"></stop><stop offset=".99" stop-color="#7fcbd0" stop-opacity="0"></stop></linearGradient><linearGradient id="linear-gradient-2" x1="353.5" y1="100.79" x2="501.61" y2="100.79" xlink:href="#linear-gradient"></linearGradient><linearGradient id="linear-gradient-3" x1="232.6" y1="321.75" x2="380.7" y2="321.75" xlink:href="#linear-gradient"></linearGradient><linearGradient id="linear-gradient-4" x1="250.1" y1="327.56" x2="398.21" y2="327.56" xlink:href="#linear-gradient"></linearGradient><linearGradient id="linear-gradient-5" x1="355.43" y1="164.22" x2="503.54" y2="164.22" xlink:href="#linear-gradient"></linearGradient><linearGradient id="linear-gradient-6" x1="363.64" y1="158.46" x2="566.89" y2="158.46" xlink:href="#linear-gradient"></linearGradient><linearGradient id="linear-gradient-7" x1="340.94" y1="152.09" x2="544.2" y2="152.09" xlink:href="#linear-gradient"></linearGradient><linearGradient id="linear-gradient-8" x1="251.67" y1="233.1" x2="399.78" y2="233.1" xlink:href="#linear-gradient"></linearGradient><linearGradient id="linear-gradient-9" x1="259.88" y1="227.33" x2="463.13" y2="227.33" xlink:href="#linear-gradient"></linearGradient><linearGradient id="linear-gradient-10" x1="237.19" y1="220.96" x2="440.44" y2="220.96" xlink:href="#linear-gradient"></linearGradient><linearGradient id="linear-gradient-11" x1="485.4" y1="320.56" x2="633.51" y2="320.56" xlink:href="#linear-gradient"></linearGradient><linearGradient id="linear-gradient-12" x1="450.56" y1="314.79" x2="653.82" y2="314.79" xlink:href="#linear-gradient"></linearGradient><linearGradient id="linear-gradient-13" x1="427.87" y1="308.42" x2="631.12" y2="308.42" xlink:href="#linear-gradient"></linearGradient></defs><g id="BACKGROUND"><rect width="750" height="500" style="fill: #fffdf9;"></rect></g><g id="OBJECT"><g><g><path d="M668.93,407.64H67.23c-8.47-10.59,.81-29.75,11.78-37.74,10.96-7.99,24.78-12.19,33.83-22.3,14.17-15.83,11.84-39.83,10.52-61.04-1.32-21.21,1.6-46.67,20.38-56.61,17.32-9.17,39.15,.05,57.94-5.52,18.57-5.5,29.77-23.69,41.14-39.36,37.98-52.36,96.29-89.56,159.77-101.94,27.34-5.33,56.51-6.04,82.2,4.71s47.04,34.82,48.53,62.63c1.05,19.67-7.46,38.42-11.77,57.64s-2.99,42.47,12.66,54.43c12.68,9.68,30.14,8.6,45.96,10.63,15.82,2.02,33.98,11.19,34.44,27.14,.5,17.3-20.71,31.21-16.36,47.96,2.66,10.24,13.92,15.69,24.34,17.53,10.41,1.84,21.48,1.53,30.95,6.24,9.47,4.71,21.41,26.93,15.39,35.63Z" style="fill: #e7faf9;"></path><g><path d="M259.88,131.84H102.3c-1.55-3.96,1.81-8.35,5.73-10.01,3.92-1.66,8.37-1.23,12.61-.87s8.75,.57,12.51-1.43c7.26-3.88,8.24-13.61,11.54-21.15,4.94-11.29,17.21-18.94,29.52-18.41,12.31,.53,23.88,9.19,27.84,20.86,2.04,6.02,2.46,13.07,7.09,17.42,4.87,4.58,12.56,4.28,19,2.51,6.45-1.77,12.75-4.73,19.43-4.55,6.68,.18,12.76,8.97,12.3,15.64Z" style="fill: #fbeed1;"></path><path d="M485.48,59.68h-144.06c3.23-7.47,9.66-14.09,17.36-16.74,7.7-2.65,16.49-1.92,23.64,1.98,4.39,2.39,8.35,5.97,13.3,6.71,7.79,1.16,14.49-4.94,21.07-9.26,11.19-7.32,25.25-10.13,38.39-7.66,13.14,2.47,22.53,14.09,30.29,24.98Z" style="fill: #fbeed1;"></path><path d="M677.98,130.68h-134.5c.46-4.34,3.28-9.42,6.81-11.98,3.53-2.56,8.17-3.53,12.43-2.61,3.33,.72,6.39,2.51,9.78,2.84,5.32,.52,10.32-2.68,14.13-6.43,3.81-3.75,6.96-8.22,11.3-11.35,5.67-4.09,13.16-5.53,19.94-3.83,6.78,1.7,12.71,6.51,15.77,12.8,1.31,2.7,2.12,5.63,3.48,8.3,1.37,2.67,3.47,5.18,6.35,6.04,4.8,1.43,9.52-2.05,14.33-3.41,7.36-2.08,16.43,2.96,20.18,9.63Z" style="fill: #fbeed1;"></path></g></g><g><g><ellipse cx="366.26" cy="458.68" rx="223.12" ry="7.5" style="fill: #6ca8bc;"></ellipse><g><g><g><path d="M261.71,220.05h-14.16c-2.64,0-4.77,2.14-4.77,4.77v8.85c0,2.64,2.14,4.77,4.77,4.77h11.46v-3.52h0c3.45,0,6.77-1.37,9.21-3.81l1.72-1.72-8.23-9.34Z" style="fill: #eba58e;"></path><polygon points="261.71 220.05 269.94 229.38 305.3 221.16 300.41 208.09 261.71 220.05" style="fill: #eba58e;"></polygon><polygon points="300.41 208.09 298.68 208.62 298.12 222.83 305.3 221.16 300.41 208.09" style="fill: #dd8c76;"></polygon><path d="M368.09,157.5h0c-4.66-3.66-11.38-3-15.25,1.48l-36.67,42.54-6.63,2.23,6.16,16.47,3.48-.75c5.5-1.19,10.52-4.01,14.4-8.09l35.7-37.51c4.51-4.74,3.96-12.33-1.19-16.37Z" style="fill: #636363;"></path><path d="M315.9,220.75l-.2-.52-6.16-16.47-.61-1.63c-.35-.93-1.39-1.41-2.32-1.06l-6.06,2.27c-.93,.35-1.41,1.39-1.06,2.32l.49,1.32,5.76,15.4,.71,1.9c.35,.93,1.39,1.41,2.32,1.06l6.06-2.27c.93-.35,1.41-1.39,1.06-2.32Z" style="fill: #1c1c1c;"></path><path d="M355.17,160.76c3.41-3.96,9.1-5.02,13.71-2.57-.25-.24-.51-.47-.79-.69h0c-4.66-3.66-11.38-3-15.25,1.48l-36.67,42.54-6.63,2.23,.99,2.64,7.44-2.51,37.19-43.13Z" style="fill: #2b2b2b;"></path></g><g><path d="M355.33,246.01l-76.43,20.34c-13.21,3.52-19.38,18.71-12.34,30.44l44.55,74.29,24.81-11.01-35.65-67.79,72.6-15.17c14.04-2.94,22.32-17.54,17.61-31.09h-35.15Z" style="fill: #422c4f;"></path><g><path d="M332.71,365.14l-1.86-2.82-14.1,6.25,3.32,6.04,15.71-4.41c-.96-1.72-1.98-3.42-3.07-5.07Z" style="fill: #eba58e;"></path><path d="M328.83,377.31l-1.31,3.34,1.75-1.23c.69-.49,1.52-.75,2.37-.75h8.23c-1.2-2.9-2.56-5.72-4.1-8.46l-15.71,4.41,.95,1.73h7.16c.5,0,.84,.5,.66,.96Z" style="fill: #fff;"></path><path d="M310.77,391.7h33.3l-.61-2.35c-.94-3.65-2.15-7.21-3.59-10.68h-8.23c-.85,0-1.68,.26-2.37,.75l-1.75,1.23,1.31-3.34c.18-.46-.16-.96-.66-.96h-7.16l-5.29,4.97c-2.4,2.25-5.56,3.51-8.85,3.51h-3.61c-3.53,0-6.61,1.97-8.2,4.88l6.87,1.22c2.91,.52,5.87,.78,8.83,.78Z" style="fill: #422c4f;"></path><path d="M310.77,391.7c-2.96,0-5.91-.26-8.83-.78l-6.87-1.22c-.67,1.23-1.08,2.64-1.14,4.13l10.49,.95c1.66,.15,3.32,.23,4.99,.23h35.5l-.85-3.31h-33.3Z" style="fill: #fff;"></path><polygon points="330.84 362.33 316.75 368.58 318.27 371.35 333.62 366.56 330.84 362.33" style="fill: #422c4f;"></polygon></g></g></g><g><g><path d="M237.41,239.17h-3.61l-9.29,32.85c-7.27,25.72-4.32,53.22,8.17,76.79l4.53,1.71,.2-111.35Z" style="fill: #c4c4c4;"></path><path d="M224.51,272.02l9.29-32.85h-3.38l-19.06,70.75c-1.72,6.37-7.49,10.8-14.09,10.8-.5,0-.9,.4-.9,.9v13.5l36.32,13.69c-12.49-23.57-15.44-51.07-8.17-76.79Z" style="fill: #f29101;"></path></g><g><circle cx="193.88" cy="406.18" r="50.74" style="fill: #422c4f;"></circle><circle cx="193.88" cy="406.18" r="36.54" style="fill: #495375;"></circle><circle cx="193.88" cy="406.18" r="29.83" style="fill: #c7d2d7;"></circle><path d="M193.88,376.35c-5.63,0-10.9,1.56-15.4,4.28,2.07-.52,4.25-.81,6.48-.81,14.56,0,26.36,11.8,26.36,26.36s-11.8,26.36-26.36,26.36c-2.24,0-4.41-.28-6.48-.81,4.49,2.71,9.76,4.28,15.4,4.28,16.48,0,29.83-13.36,29.83-29.83s-13.36-29.83-29.83-29.83Z" style="fill: #99a3b0;"></path><circle cx="193.88" cy="406.18" r="13.16" style="fill: #99a3b0;"></circle><circle cx="193.88" cy="406.18" r="8.91" transform="translate(-230.43 256.06) rotate(-45)" style="fill: #8e8e8e;"></circle></g><g><circle cx="454.53" cy="406.18" r="50.74" style="fill: #422c4f;"></circle><circle cx="454.53" cy="406.18" r="36.54" style="fill: #495375;"></circle><circle cx="454.53" cy="406.18" r="29.83" style="fill: #c7d2d7;"></circle><path d="M454.53,376.35c-5.63,0-10.9,1.56-15.4,4.28,2.07-.52,4.25-.81,6.48-.81,14.56,0,26.36,11.8,26.36,26.36s-11.8,26.36-26.36,26.36c-2.24,0-4.41-.28-6.48-.81,4.49,2.71,9.76,4.28,15.4,4.28,16.48,0,29.83-13.36,29.83-29.83s-13.36-29.83-29.83-29.83Z" style="fill: #99a3b0;"></path><circle cx="454.53" cy="406.18" r="13.16" style="fill: #99a3b0;"></circle><circle cx="454.53" cy="406.18" r="8.91" transform="translate(-154.08 440.37) rotate(-45)" style="fill: #7c7c7c;"></circle></g><g><g><path d="M196.32,338.97c26.14,.82,48.49,19.12,55.44,44.32l1.13,4.09,1.23,.6-2.36-8.54c-6.95-25.21-29.31-43.5-55.44-44.32-.67-.02-1.35-.03-2.03-.03-11.25,0-22.04,2.93-31.53,8.41l1.73,2.88c9.06-4.86,19.23-7.45,29.8-7.45,.68,0,1.35,.01,2.03,.03Z" style="fill: #fff;"></path><path d="M201.1,361.93l51.8,25.46-1.13-4.09c-6.95-25.21-29.31-43.5-55.44-44.32-.67-.02-1.35-.03-2.03-.03-10.57,0-20.74,2.59-29.8,7.45l9.3,15.54h27.3Z" style="fill: #f2c8c2;"></path></g><path d="M256.58,391.84h-24.21c-10.88,0-21.32-4.32-29.02-12.02h0c-7.7-7.7-18.14-12.02-29.02-12.02h-28.71l9.08-9.08c10.5-10.5,24.74-16.4,39.59-16.4h0c19.13,0,36.93,9.76,47.22,25.89l15.07,23.63Z" style="fill: #f29101;"></path></g><path d="M237.41,239.17l-9.29,32.85c-7.45,26.34-4.18,54.56,9.09,78.5l4.64,8.37c13.13,23.68,38.07,38.38,65.15,38.38h228.56l-8.19-29.72c-8.08-29.32-26.93-54.5-52.79-70.5l-14.8-9.16h-127.15v5.55c0,3.69,2.35,6.97,5.85,8.14h0c13.6,4.58,23.37,16.57,25.11,30.82h0c2.72,22.23-14.63,41.83-37.03,41.83h-18.59c-17.82,0-34.41-9.11-43.96-24.16l-8.62-13.57c-9.51-14.97-12.76-33.07-9.06-50.41l10.01-46.92h-18.94Z" style="fill: #f29101;"></path><path d="M459.78,287.89h-137.42v-16.31h109.58c7.62,0,14.92,3.08,20.24,8.53l7.6,7.78Z" style="fill: #422c4f;"></path><path d="M379.88,399.52h-61.7c-27.89,0-53.61-15.15-67.12-39.54l-4.64-8.37c-13.65-24.63-16.95-53.11-9.29-80.2,2.46-8.72,1.32-18.24-3.14-26.12-.61-1.08-.23-2.46,.85-3.07,1.09-.61,2.46-.23,3.07,.85,5.05,8.93,6.34,19.7,3.55,29.57-7.33,25.94-4.18,53.21,8.89,76.79l4.64,8.37c12.72,22.96,36.93,37.22,63.18,37.22h61.7c1.25,0,2.26,1.01,2.26,2.26s-1.01,2.26-2.26,2.26Z" style="fill: #f2c8c2;"></path><path d="M382.12,388.44h141.37l-2.16,2.16c-3.46,3.46-8.15,5.4-13.04,5.4h-111.28c-5.89,0-11.42-2.81-14.89-7.56h0Z" style="fill: #c4c4c4;"></path><g><circle cx="443.86" cy="381.09" r="30.58" style="fill: #99a3b0;"></circle><path d="M443.86,404.61c-12.97,0-23.52-10.55-23.52-23.52s10.55-23.52,23.52-23.52,23.52,10.55,23.52,23.52-10.55,23.52-23.52,23.52Zm0-44.53c-11.59,0-21.02,9.43-21.02,21.02s9.43,21.02,21.02,21.02,21.02-9.43,21.02-21.02-9.43-21.02-21.02-21.02Z" style="fill: #495375;"></path><g><path d="M459.13,382.34h-30.54c-.69,0-1.25-.56-1.25-1.25s.56-1.25,1.25-1.25h30.54c.69,0,1.25,.56,1.25,1.25s-.56,1.25-1.25,1.25Z" style="fill: #495375;"></path><path d="M456.5,377.34h-25.28c-.69,0-1.25-.56-1.25-1.25s.56-1.25,1.25-1.25h25.28c.69,0,1.25,.56,1.25,1.25s-.56,1.25-1.25,1.25Z" style="fill: #495375;"></path><path d="M452.97,372.33h-18.22c-.69,0-1.25-.56-1.25-1.25s.56-1.25,1.25-1.25h18.22c.69,0,1.25,.56,1.25,1.25s-.56,1.25-1.25,1.25Z" style="fill: #495375;"></path><path d="M448.76,367.33h-9.82c-.69,0-1.25-.56-1.25-1.25s.56-1.25,1.25-1.25h9.82c.69,0,1.25,.56,1.25,1.25s-.56,1.25-1.25,1.25Z" style="fill: #495375;"></path><path d="M456.5,387.35h-25.28c-.69,0-1.25-.56-1.25-1.25s.56-1.25,1.25-1.25h25.28c.69,0,1.25,.56,1.25,1.25s-.56,1.25-1.25,1.25Z" style="fill: #495375;"></path><path d="M452.97,392.35h-18.22c-.69,0-1.25-.56-1.25-1.25s.56-1.25,1.25-1.25h18.22c.69,0,1.25,.56,1.25,1.25s-.56,1.25-1.25,1.25Z" style="fill: #495375;"></path><path d="M448.76,397.35h-9.82c-.69,0-1.25-.56-1.25-1.25s.56-1.25,1.25-1.25h9.82c.69,0,1.25,.56,1.25,1.25s-.56,1.25-1.25,1.25Z" style="fill: #495375;"></path></g></g><g><path d="M476.86,314.86h0c-14.55-8.84-31.25-13.52-48.27-13.52h-5.71c-29,0-53.59,23.72-53.57,52.72,0,13.14,4.84,25.15,12.81,34.37h141.37l-5.42-19.28c-6.37-22.66-21.09-42.07-41.21-54.29Z" style="fill: #d8d8d8;"></path><path d="M468.7,334.56h0c-10.65-6.47-22.88-9.9-35.35-9.9h-4.18c-21.24,0-39.24,17.37-39.23,38.61,0,9.62,3.54,18.42,9.38,25.17h103.52l-3.97-14.12c-4.66-16.6-15.45-30.8-30.18-39.76Z" style="fill: #f29101;"></path></g><g><path d="M469.35,380.65h-47.59c-.75,0-1.35-.61-1.35-1.35s.61-1.35,1.35-1.35h47.59c.75,0,1.35,.61,1.35,1.35s-.61,1.35-1.35,1.35Z" style="fill: #495375;"></path><path d="M467.88,375.29h-47.59c-.75,0-1.35-.61-1.35-1.35s.61-1.35,1.35-1.35h47.59c.75,0,1.35,.61,1.35,1.35s-.61,1.35-1.35,1.35Z" style="fill: #495375;"></path><path d="M466.42,369.93h-47.59c-.75,0-1.35-.61-1.35-1.35s.61-1.35,1.35-1.35h47.59c.75,0,1.35,.61,1.35,1.35s-.61,1.35-1.35,1.35Z" style="fill: #495375;"></path><path d="M464.95,364.58h-47.59c-.75,0-1.35-.61-1.35-1.35s.61-1.35,1.35-1.35h47.59c.75,0,1.35,.61,1.35,1.35s-.61,1.35-1.35,1.35Z" style="fill: #495375;"></path><path d="M463.49,359.22h-47.59c-.75,0-1.35-.61-1.35-1.35s.61-1.35,1.35-1.35h47.59c.75,0,1.35,.61,1.35,1.35s-.61,1.35-1.35,1.35Z" style="fill: #495375;"></path></g><path d="M332.63,287.89h127.15c-2.81,2.81-6.63,4.4-10.61,4.4h-104.77c-4.32,0-8.5-1.56-11.77-4.4h0Z" style="fill: #c1c1c1;"></path><path d="M256.35,239.17h-37.89v-24.28h8.23c7.06,0,14.03,1.55,20.43,4.53l6.09,2.84c3.91,1.82,5.96,6.18,4.86,10.36l-1.72,6.55Z" style="fill: #f29101;"></path><g><rect x="214.48" y="214.89" width="3.98" height="24.28" style="fill: #f2c8c2;"></rect><rect x="212.45" y="214.89" width="2.03" height="24.28" style="fill: #fff;"></rect></g><g><g><path d="M519.67,284.41c.53-.53,.53-1.39,0-1.91-.53-.53-1.38-.53-1.91,0l-11.33,11.33h3.83l9.42-9.42Z" style="fill: #c7d2d7;"></path><path d="M506.43,293.83l-18.36,18.36c-.53,.53-.53,1.38,0,1.91,.26,.26,.61,.4,.96,.4s.69-.13,.96-.4l20.27-20.27h-3.83Z" style="fill: #fff;"></path></g><path d="M451,298.97h-76.26c-1.25,0-2.26-1.01-2.26-2.26s1.01-2.26,2.26-2.26h76.26c5.45,0,10.57-2.12,14.42-5.97,4.7-4.7,10.96-7.29,17.61-7.29h74.18c1.25,0,2.26,1.01,2.26,2.26s-1.01,2.26-2.26,2.26h-74.18c-5.45,0-10.57,2.12-14.42,5.97-4.7,4.7-10.96,7.29-17.61,7.29Z" style="fill: #fff;"></path></g></g><polygon points="237.41 239.17 256.35 239.17 255.91 241.22 236.83 241.22 237.41 239.17" style="fill: #a34262;"></polygon><g><rect x="456.03" y="182.57" width="133.35" height="98.63" style="fill: #ffdaa9;"></rect><rect x="452.21" y="166.47" width="140.98" height="16.09" style="fill: #f0bf6c;"></rect><rect x="456.03" y="182.57" width="133.35" height="7.82" style="fill: #eba25d;"></rect><g><polygon points="472.67 203 472.07 206.05 522.7 206.05 540.84 203 472.67 203"></polygon><polygon points="473.58 198.2 472.98 201.25 561.77 201.25 579.91 198.2 473.58 198.2"></polygon><polygon points="472.67 268.52 472.07 271.57 522.7 271.57 540.84 268.52 472.67 268.52"></polygon><polygon points="473.58 263.72 472.98 266.78 561.77 266.78 579.91 263.72 473.58 263.72"></polygon></g><path d="M568.85,231.4h-.82l.5,.97h.38v-.97h-.06Z" style="fill: #da8f22;"></path></g><g><g><path d="M355.33,246.01l-63.74,19.05c-14.1,4.21-20.45,20.59-12.88,33.21l43.67,72.81,24.81-11.01-35.65-67.79,72.6-15.17c14.04-2.94,22.32-17.54,17.61-31.09h-46.41Z" style="fill: #454f6b;"></path><g><path d="M343.97,365.14l-1.86-2.82-14.1,6.25,3.32,6.04,15.71-4.41c-.96-1.72-1.98-3.42-3.07-5.07Z" style="fill: #f2c9ad;"></path><path d="M340.09,377.31l-1.31,3.34,1.75-1.23c.69-.49,1.52-.75,2.37-.75h8.23c-1.2-2.9-2.56-5.72-4.1-8.46l-15.71,4.41,.95,1.73h7.16c.5,0,.84,.5,.66,.96Z" style="fill: #fff;"></path><path d="M322.03,391.7h33.3l-.61-2.35c-.94-3.65-2.15-7.21-3.59-10.68h-8.23c-.85,0-1.68,.26-2.37,.75l-1.75,1.23,1.31-3.34c.18-.46-.16-.96-.66-.96h-7.16l-5.29,4.97c-2.4,2.25-5.56,3.51-8.85,3.51h-3.61c-3.53,0-6.61,1.97-8.2,4.88l6.87,1.22c2.91,.52,5.87,.78,8.83,.78Z" style="fill: #422c4f;"></path><path d="M322.03,391.7c-2.96,0-5.91-.26-8.83-.78l-6.87-1.22c-.67,1.23-1.08,2.64-1.14,4.13l10.49,.95c1.66,.15,3.32,.23,4.99,.23h35.5l-.85-3.31h-33.3Z" style="fill: #fff;"></path><polygon points="342.11 362.33 328.01 368.58 329.53 371.35 344.88 366.56 342.11 362.33" style="fill: #422c4f;"></polygon></g></g><g><path d="M345.99,136.62l-1.93-10.95c-.65-3.66-3.83-6.34-7.55-6.34h-10.98l.98,5.2c.71,3.76,.64,7.63-.2,11.37l-.48,2.12c-.2,.9,.48,1.76,1.4,1.76h2.22c2.84,10.26,15.31,14.64,23.97,7.98l13.62-10.46-7.23,5.05c-5.32,3.72-12.7,.65-13.82-5.73Z" style="fill: #f2c9ad;"></path><path d="M324.81,115.59l.71,3.75h10.98c3.72,0,6.91,2.67,7.55,6.34l1.93,10.95c1.13,6.39,8.5,9.45,13.82,5.73l7.23-5.05h0s0,0,0,0v-21.72h-42.23Z" style="fill: #eba58e;"></path><g><polygon points="367.04 137.31 353.42 147.77 355.23 152.97 367.04 137.31 367.04 137.31" style="fill: #422c4f;"></polygon><polygon points="376.58 151.76 367.04 137.31 355.23 152.97 358.32 161.84 376.58 151.76" style="fill: #f2c9ad;"></polygon></g><path d="M333.71,127.98c.21,1.25-.17,2.36-.85,2.47-.68,.11-1.39-.81-1.6-2.07-.21-1.25,.17-2.36,.85-2.47,.68-.11,1.39,.81,1.6,2.07Z" style="fill: #422c4f;"></path><path d="M330.49,123.57c1.13-.64,2.4-.55,3.47,.16,1.06,.7,2.04-1,.99-1.7-1.65-1.09-3.75-1.13-5.46-.16-1.1,.62-.11,2.32,.99,1.7h0Z" style="fill: #422c4f;"></path><g><path d="M353.42,139.71l-4.16,11.85c-.14,.39,.18,.79,.6,.74h0c3.11-.37,5.86-2.19,7.43-4.9l5.28-9.15-9.14,1.45Z" style="fill: #454f6b;"></path><g><path d="M349.35,121.59l2.29,12.99c.39,2.22,2.7,3.54,4.81,2.76l22.59-8.36v-16.17c0-16.61-13.47-30.08-30.08-30.08h0c-16.31,0-29.57,12.98-30.05,29.17h18.9c5.69,0,10.56,4.09,11.55,9.69Z" style="fill: #f29101;"></path><g><path d="M367.64,107.15c-1.46,0-2.88-.79-3.6-2.18-2.95-5.65-8.73-9.16-15.08-9.16-2.24,0-4.06-1.82-4.06-4.06s1.82-4.06,4.06-4.06c9.38,0,17.92,5.18,22.27,13.52,1.04,1.99,.27,4.44-1.72,5.48-.6,.31-1.24,.46-1.88,.46Z" style="fill: #fff;"></path><path d="M336.54,99.82c-1.25,0-2.49-.58-3.28-1.66-1.32-1.81-.93-4.35,.88-5.67l.19-.14c1.82-1.31,4.36-.89,5.66,.94,1.31,1.82,.89,4.36-.93,5.66l-.13,.09c-.72,.53-1.56,.78-2.39,.78Z" style="fill: #fff;"></path></g><path d="M356.45,137.34c-2.11,.78-4.42-.54-4.81-2.76l-2.29-12.99c-.99-5.6-5.86-9.69-11.55-9.69h-18.9c0,.3-.02,.6-.02,.91v2.78h17.92c4.38,0,8.12,3.14,8.88,7.45l2.28,12.89c.81,4.6,5.72,7.23,10.01,5.35l18.92-8.3c1.31-.58,2.16-1.87,2.16-3.3v-.71l-22.59,8.36Z" style="fill: #f29101;"></path></g></g></g><g><g><path d="M349.8,239.08l5.53-24.19-7.94-43.5c-.95-5.18,1.52-10.38,6.13-12.93l18.25-10.08c2.39-1.32,5.35-1.02,7.42,.76h0c15.04,12.89,24.45,31.14,26.22,50.87l3.44,38.22c.38,4.18-2.92,7.79-7.12,7.79h-46.41c-3.64,0-6.34-3.39-5.53-6.94Z" style="fill: #4c4c4c;"></path><path d="M377.33,166.46l.15,.59c1.92,7.39,.51,15.25-3.85,21.52l-18.3,26.32-3.72-20.39,25.72-28.05Z" style="fill: #282828;"></path></g><g><g><polygon points="351.81 153.55 346.8 156.14 351.81 161.55 353.52 158.46 351.81 153.55"></polygon><polygon points="346.8 156.35 345.66 165.39 350.83 160.6 346.8 156.35" style="fill: #111;"></polygon></g><polygon points="374.73 147.56 369.41 142.87 350.43 153.25 353.03 164.22 374.73 147.56" style="fill: #1c1c1c;"></polygon></g></g><g><g><path d="M267.56,224.57h-14.16c-2.64,0-4.77,2.14-4.77,4.77v8.85c0,2.64,2.14,4.77,4.77,4.77h11.46v-3.52h0c3.45,0,6.77-1.37,9.21-3.81l1.72-1.72-8.23-9.34Z" style="fill: #f2c9ad;"></path><polygon points="267.56 224.57 275.8 233.91 311.15 225.69 306.26 212.61 267.56 224.57" style="fill: #f2c9ad;"></polygon><polygon points="306.26 212.61 304.53 213.14 303.97 227.36 311.15 225.69 306.26 212.61" style="fill: #eba58e;"></polygon><path d="M373.95,162.03h0c-4.66-3.66-11.38-3-15.25,1.48l-36.67,42.54-6.63,2.23,6.16,16.47,3.48-.75c5.5-1.19,10.52-4.01,14.4-8.09l35.7-37.51c4.51-4.74,3.96-12.33-1.19-16.37Z" style="fill: #4c4c4c;"></path><path d="M321.75,225.27l-.2-.52-6.16-16.47-.61-1.63c-.35-.93-1.39-1.41-2.32-1.06l-6.06,2.27c-.93,.35-1.41,1.39-1.06,2.32l.49,1.32,5.76,15.4,.71,1.9c.35,.93,1.39,1.41,2.32,1.06l6.06-2.27c.93-.35,1.41-1.39,1.06-2.32Z" style="fill: #191919;"></path><path d="M361.02,165.28c3.41-3.96,9.1-5.02,13.71-2.57-.25-.24-.51-.47-.79-.69h0c-4.66-3.66-11.38-3-15.25,1.48l-36.67,42.54-6.63,2.23,.99,2.64,7.44-2.51,37.19-43.13Z" style="fill: #212121;"></path></g><g><path d="M269.52,239.42c1.08-1.97,3.54-2.69,5.51-1.61h.01c-.08-.04-.15-.11-.24-.16l-9.08-4.97c-1.97-1.08-4.43-.36-5.51,1.61-1.08,1.97-.36,4.43,1.61,5.51l9.06,4.97c-1.77-1.14-2.4-3.47-1.37-5.35Z" style="fill: #422c4f;"></path><path d="M272.85,245.28c1.43,0,2.83-.76,3.56-2.11,1.03-1.88,.4-4.2-1.37-5.35h-.01c-1.97-1.09-4.43-.37-5.51,1.6-1.03,1.88-.4,4.2,1.37,5.35h.01c.62,.35,1.29,.51,1.95,.51Z" style="fill: #495375;"></path></g></g></g><g><path d="M527.31,439.07c1.86-6.05,2.83-8.63,15.27-9.68,3.4-.29,6.83,.85,10.22,.46,3.39-.38,7.01-2.75,7.06-6.16,.05-3.66-3.94-6.91-2.76-10.37,.88-2.55,4.09-3.41,6.78-3.25,2.69,.16,5.47,.92,8.03,.05,3.13-1.06,5.06-4.4,5.36-7.7s-.7-6.56-1.84-9.66c-1.14-3.11-2.43-6.21-2.74-9.51-.64-7.01,3.39-13.74,8.66-18.4,7.27-6.43,17.14-9.82,26.82-9.21,9.47,.59,21.09,4.15,26.51,12.48,3.18,4.89,4.33,11.05,3.14,16.76-.5,2.41-1.41,4.89-.74,7.26,.97,3.47,4.77,5.17,8.12,6.49,3.35,1.32,7.12,3.2,7.85,6.73,.66,3.2-1.66,6.36-4.48,7.99s-6.13,2.17-9.24,3.16c-3.11,.99-6.28,2.68-7.66,5.64-1.18,2.53-.83,5.54-1.86,8.13-1.73,4.39-7.06,6.46-11.74,5.91-4.68-.56-8.84-3.14-12.77-5.76-1.95-1.3-3.92-2.64-6.15-3.36-2.23-.72-4.81-.72-6.78,.55-2.46,1.59-3.75,4.97-6.62,5.57-2.78,.58-5.19-1.79-7.3-3.69-2.11-1.9-5.5-3.48-7.57-1.55-.91,.85-1.23,2.13-1.79,3.25-2.19,4.39-7.88,5.84-12.75,5.3s-9.5-2.55-14.38-3.05c-4.88-.5-13.45,1.68-14.65,5.62Z" style="fill: #fbeed1;"></path><path d="M647.07,426.22c4.2-1.37,9.14-.12,12.17,3.1,1.94,2.05,3.04,5.37,1.42,7.68-1.36,1.94-4.11,2.38-6.43,1.9-2.32-.48-4.42-1.67-6.68-2.38-2.26-.71-4.92-.88-6.81,.55-.47,.35-.88,.8-1.41,1.04-3.32,1.51,.35-4.79,.77-5.65,1.43-2.88,3.87-5.22,6.96-6.24Z" style="fill: #fbeed1;"></path><path d="M679.69,391.38c2.13-.5,4.69,.1,5.82,1.97,1.33,2.2,.12,5.23-1.97,6.71-2.6,1.84-11.7,3.81-13.61-.17-1.52-3.18,7.04-7.88,9.76-8.51Z" style="fill: #fbeed1;"></path><path d="M648.77,385.85c.48,.88,1.44,1.41,2.43,1.59,.98,.19,2,.08,2.99-.03,1.76-.19,3.57-.4,5.1-1.3,1.53-.89,2.69-2.66,2.31-4.38-1.43-6.57-16-1.73-12.83,4.12Z" style="fill: #fbeed1;"></path><path d="M563.17,350.46c-1.57,.7-2.96,2.2-2.87,3.92,.07,1.28,.96,2.41,2.07,3.05,1.11,.64,2.42,.85,3.7,.92,1.6,.09,3.36-.08,4.55-1.15,.77-.69,1.2-1.67,1.78-2.52,1.05-1.53,2.64-2.67,4.41-3.18,1.05-.3,2.64-.59,2.68-1.97,.03-1.38-1.82-2.35-2.98-2.6-1.08-.24-2.05,.15-3.04,.58-1.51,.65-2.99,1.29-4.6,1.67-1.89,.45-3.91,.5-5.7,1.3Z" style="fill: #fbeed1;"></path></g></g></g><g><rect x="336" y="93.52" width="148.11" height="2.92" style="fill: url(#linear-gradient);"></rect><rect x="353.5" y="99.33" width="148.11" height="2.92" style="fill: url(#linear-gradient-2);"></rect><rect x="232.6" y="320.3" width="148.11" height="2.92" style="fill: url(#linear-gradient-3);"></rect><rect x="250.1" y="326.11" width="148.11" height="2.92" style="fill: url(#linear-gradient-4);"></rect><rect x="355.43" y="162.76" width="148.11" height="2.92" style="fill: url(#linear-gradient-5);"></rect><rect x="363.64" y="157" width="203.25" height="2.92" style="fill: url(#linear-gradient-6);"></rect><rect x="340.94" y="150.63" width="203.25" height="2.92" style="fill: url(#linear-gradient-7);"></rect><rect x="251.67" y="231.64" width="148.11" height="2.92" style="fill: url(#linear-gradient-8);"></rect><rect x="259.88" y="225.88" width="203.25" height="2.92" style="fill: url(#linear-gradient-9);"></rect><rect x="237.19" y="219.51" width="203.25" height="2.92" style="fill: url(#linear-gradient-10);"></rect><rect x="485.4" y="319.1" width="148.11" height="2.92" style="fill: url(#linear-gradient-11);"></rect><rect x="450.56" y="313.34" width="203.25" height="2.92" style="fill: url(#linear-gradient-12);"></rect><rect x="427.87" y="306.97" width="203.25" height="2.92" style="fill: url(#linear-gradient-13);"></rect></g></g></g><g><path d="M537.79,238.12h-.96l.48,.87h.54v-.87h-.06Z" style="fill: #da8f22;"></path><path d="M554.44,238.12h-.78l.48,.87h.33v-.87h-.03Z" style="fill: #da8f22;"></path><path d="M565.48,238.12h-.78l.48,.87h.36v-.87h-.06Z" style="fill: #da8f22;"></path><path d="M477.64,246.12c-.06-.26-.18-.48-.51-.78-.3-.3-.81-.61-1.57-1.04-.15-.09-.3-.17-.45-.26-.48-.3-.9-.65-1.26-1.04,.51,.87,1.26,1.61,2.35,2.17,.66,.39,1.11,.7,1.45,.96Z" style="fill: #da8f22;"></path><path d="M480.41,245.86c.03,.22,.03,.44,.03,.65,0,.35-.03,.65-.06,1-.3,2.48-1.75,4.09-3.7,4.09-.15,0-.3,0-.42-.04-.48-.04-.84-.17-1.17-.35-.15-.09-.3-.17-.42-.26-.03-.04-.06-.04-.09-.04l.03,.39h-2.2l.54,.87h2.11l-.06-.61c.42,.43,1.14,.87,2.29,.87,2.14,0,3.64-2,3.64-4.91,0-1.09-.21-2-.66-2.78,.06,.39,.12,.74,.15,1.13Z" style="fill: #da8f22;"></path><path d="M476.89,238.68c.27,0,.51,.04,.69,.13-.03-.13-.06-.3-.12-.43-.09-.17-.21-.35-.42-.43-.18-.09-.42-.13-.72-.13-.51,0-1.14,.22-1.14,1.22,0,.09,0,.22,.03,.3,.03,.17,.09,.3,.18,.48,.06,.09,.15,.22,.24,.35v-.04c0-.96,.45-1.44,1.26-1.44Z" style="fill: #da8f22;"></path><path d="M485.8,238.12v6.13c0,.87,.09,1.57,.24,2.13,.09,.35,.24,.61,.39,.83-.12-.52-.18-1.17-.18-1.91v-6.44h1.26v-3.13l-.51-.7v3.13h-1.2v-.04Z" style="fill: #da8f22;"></path><path d="M494.17,235.03v3.13h-1.2v6.13c0,.48-.03,.96-.06,1.44-.33,3.83-2.08,5.96-4.91,5.96-.21,0-.39,0-.57-.04-.57-.04-1.08-.22-1.57-.48-.36-.22-.69-.48-.99-.78,.81,1.39,2.08,2.13,3.73,2.13,3.07,0,4.94-3.48,4.94-7.22v-6.44h1.14v-3.13l-.51-.7Z" style="fill: #da8f22;"></path><path d="M509.43,240.21h-.81l.42,.7h2.23v-5.05l-.57-.83v5.18h-1.26Z" style="fill: #da8f22;"></path><path d="M507.47,238.68c.27,0,.51,.04,.69,.13-.03-.13-.06-.3-.12-.43-.09-.17-.21-.35-.42-.43-.18-.09-.42-.13-.72-.13-.51,0-1.14,.22-1.14,1.22,0,.09,0,.22,.03,.3,.03,.17,.09,.3,.18,.48,.06,.09,.15,.22,.24,.35v-.04c0-.96,.45-1.44,1.26-1.44Z" style="fill: #da8f22;"></path><path d="M508.23,246.12c-.06-.26-.18-.48-.51-.78-.3-.3-.81-.61-1.57-1.04-.15-.09-.3-.17-.45-.26-.48-.3-.9-.65-1.26-1.04,.51,.87,1.26,1.61,2.35,2.17,.66,.39,1.14,.7,1.44,.96Z" style="fill: #da8f22;"></path><path d="M511,245.86c.03,.22,.03,.44,.03,.65,0,.35-.03,.65-.06,1-.3,2.48-1.75,4.09-3.7,4.09-.15,0-.3,0-.42-.04-.48-.04-.84-.17-1.17-.35-.15-.09-.3-.17-.42-.26-.03,0-.06-.04-.09-.04l.03,.39h-2.23l.45,.87h2.2l-.06-.57c.42,.43,1.14,.87,2.29,.87,2.14,0,3.64-2,3.64-4.91,0-1.09-.21-2-.66-2.78,.09,.35,.15,.7,.18,1.09Z" style="fill: #da8f22;"></path><path d="M520.24,250.78v.57h-4.73l.45,.78h4.76v-3.04l-.48-.83v2.52Z" style="fill: #da8f22;"></path><path d="M515.54,238.99h.78v-.87h-1.23v1.78h-2.05l.45,.7h2.05v-1.61Z" style="fill: #da8f22;"></path><path d="M522.62,236.07v3.83h-2.02l.42,.7h2.11v-4.74l-.51-.83v1.04Z" style="fill: #da8f22;"></path><path d="M519.03,238.12v9.57h.45v-8.7h.72v-.87h-1.17Z" style="fill: #da8f22;"></path><path d="M527.76,249.3v2.04h-4.46l.42,.78h4.58v-3.04l-.54-.83v1.04Z" style="fill: #da8f22;"></path><path d="M527.19,247.17l-.15,.52h3.91v-.04l-.12-.35-.03-.13h-3.61Z" style="fill: #da8f22;"></path><path d="M535.17,249.3v2.04h-4.46l.45,.78h4.52v-3.04l-.51-.83v1.04Z" style="fill: #da8f22;"></path><path d="M526.77,238.12h-.84l.42,.87h.57l.12-.35,.12-.39,.03-.13h-.42Z" style="fill: #da8f22;"></path><path d="M550.88,249.3v2.04h-4.7l.45,.78h4.76v-3.04l-.51-.83v1.04Z" style="fill: #da8f22;"></path><path d="M541.52,249.3v2.04h-4.7l.45,.78h4.76v-2.26l-.51-1.61v1.04Z" style="fill: #da8f22;"></path><path d="M550.88,235.03v3.09h-1.35v9.57h.51v-8.87h1.35v-2.96l-.51-.83Z" style="fill: #da8f22;"></path><path d="M544.59,251.04l-.12,.3h-1.23l.3,.78h1.44l.81-2.26v-2.17h1.26v-3.83l-2.47,7.18Z" style="fill: #da8f22;"></path><path d="M540.26,247.69h.45v-2.52l-.27-.74-.18-.57v3.83Z" style="fill: #da8f22;"></path><path d="M559.01,250.78v.57h-5.36l.42,.78h5.45v-3.04l-.51-.83v2.52Z" style="fill: #da8f22;"></path><path d="M562.87,239.47c.03,.39,.06,.78,.06,1.17s-.03,.78-.06,1.13c-.33,3.22-2.14,5-5.06,5h-.66v.87h1.26c3.19,0,5-2.17,5-5.96,0-1.57-.3-2.83-.84-3.83,.12,.48,.24,1.04,.3,1.61Z" style="fill: #da8f22;"></path><path d="M557.63,241.34v-2.44h2.08s-.3-.78-1.08-.78h-1.48v4.91h.48v-1.7Z" style="fill: #da8f22;"></path><path d="M568.22,238.12v6.13c0,.87,.09,1.57,.24,2.13,.09,.35,.24,.61,.39,.83-.12-.52-.18-1.17-.18-1.91v-6.52h1.26v-2.96l-.51-.83v3.13h-1.2Z" style="fill: #da8f22;"></path><path d="M576.59,235.03v3.09h-1.2v6.13c0,.48-.03,.96-.06,1.44-.33,3.83-2.08,5.96-4.91,5.96-.21,0-.39,0-.57-.04-.57-.04-1.08-.22-1.57-.48-.36-.22-.69-.48-.99-.78,.81,1.39,2.05,2.13,3.73,2.13,3.07,0,4.94-3.48,4.94-7.22v-6.52h1.14v-2.96l-.51-.74Z" style="fill: #da8f22;"></path><path d="M473.25,250.78h.9l-.15-1.3s.06,.22,.27,.48c.15,.22,.36,.43,.66,.61,.39,.26,.96,.48,1.75,.48,1.9,0,3.37-1.74,3.37-4.52,0-.35-.03-.7-.06-1-.06-.35-.12-.65-.24-.91-.15-.39-.36-.78-.63-1.13-.48-.61-1.2-1.17-2.2-1.74-.39-.22-.75-.44-1.02-.65-.18-.13-.33-.26-.45-.39s-.21-.26-.3-.39c-.24-.35-.33-.74-.33-1.22,0-.96,.42-1.78,1.54-1.78,.66,0,1.23,.22,1.51,.87,.06,.13,.09,.3,.12,.48,.03,.09,.03,.22,.03,.35v.74h1.78v-4.65h-1.81l.12,.83,.03,.22s-.06-.13-.12-.26c-.21-.39-.75-1-1.78-1-2.14,0-3.37,2.13-3.37,4.35,0,.83,.12,1.57,.42,2.22,.12,.3,.3,.57,.51,.87,.21,.3,.48,.57,.81,.83,.33,.26,.69,.52,1.11,.74,1.14,.61,1.78,1.09,2.08,1.57,.12,.22,.21,.44,.24,.65,.03,.17,.03,.3,.03,.52,0,1-.57,1.91-1.81,1.91-.36,0-.75-.09-1.08-.26-.12-.09-.24-.17-.36-.26-.12-.09-.24-.26-.33-.39-.06-.09-.09-.17-.15-.26-.06-.13-.09-.26-.12-.39-.03-.13-.06-.26-.06-.39s-.03-.26-.03-.39v-.3h-1.75l.03,4.96h.84v-.04Z" style="fill: #222221;"></path><path d="M488,251.08c2.74,0,4.58-2.13,4.58-6.83v-6.7h1.2v-2.52h-4.3v2.57h1.2v6.7c0,3.04-1.02,4.31-2.65,4.31-.45,0-.84-.09-1.2-.3-.18-.09-.33-.22-.48-.39-.18-.17-.33-.43-.45-.7-.3-.7-.48-1.61-.48-2.87v-6.79h1.2v-2.52h-4.33v2.57h1.23v6.74c0,1.61,.21,2.91,.6,3.96,.18,.48,.39,.91,.66,1.26,.24,.3,.51,.61,.78,.83,.66,.43,1.51,.7,2.44,.7Z" style="fill: #222221;"></path><path d="M503.86,250.78h.9l-.15-1.3s.06,.22,.27,.48c.15,.22,.36,.44,.66,.61,.39,.26,.96,.48,1.75,.48,1.9,0,3.37-1.74,3.37-4.52,0-.35-.03-.7-.06-1-.06-.35-.12-.65-.24-.91-.15-.39-.36-.78-.63-1.13-.48-.61-1.2-1.17-2.2-1.74-.39-.22-.75-.43-1.02-.65-.18-.13-.33-.26-.45-.39-.12-.13-.21-.26-.3-.39-.24-.35-.33-.74-.33-1.22,0-.96,.42-1.78,1.54-1.78,.66,0,1.23,.22,1.51,.87,.06,.13,.09,.3,.12,.48,.03,.09,.03,.22,.03,.35v.74h1.78v-4.7h-1.75l.12,.83,.03,.22s-.06-.13-.12-.26c-.21-.39-.72-1-1.78-1-2.14,0-3.37,2.13-3.37,4.35,0,.83,.12,1.57,.42,2.22,.12,.3,.3,.57,.51,.87,.21,.3,.48,.57,.81,.83,.33,.26,.69,.52,1.11,.74,1.14,.61,1.78,1.09,2.08,1.57,.12,.22,.21,.44,.24,.65,.03,.17,.03,.3,.03,.52,0,1-.57,1.91-1.81,1.91-.36,0-.75-.09-1.08-.26-.12-.09-.24-.17-.36-.26-.12-.09-.24-.26-.33-.39-.06-.09-.09-.17-.15-.26-.06-.13-.09-.26-.12-.39-.03-.13-.06-.26-.06-.39s-.03-.26-.03-.39v-.3h-1.75v4.96h.81Z" style="fill: #222221;"></path><path d="M513.04,235.03v4.31h1.66v-1.78h2.02v10.7h-1.2v2.52h4.33v-2.52h-1.2v-10.7h1.96v1.78h1.63v-4.31h-9.18Z" style="fill: #222221;"></path><path d="M525.93,235.03v2.57h1.87l-3.31,10.66h-1.17v2.57h4.09v-2.57h-.96l.48-1.65h4.12l.48,1.65h-.84v2.57h4.09v-2.57h-1.17l-4.09-13.22h-3.58Zm3.07,4.61l.3,1.04,.15,.48,.93,3.18h-2.77l1.38-4.7Z" style="fill: #222221;"></path><path d="M547.81,235.03l-4.15,11.96-4.12-11.96h-2.71v2.52h1.38v10.7h-1.38v2.52h4.3v-2.52h-1.26v-6.79l3.25,9.31h1.11l3.22-9.31v6.79h-1.26v2.52h4.3v-2.52h-1.35v-10.7h1.35v-2.52h-2.68Z" style="fill: #222221;"></path><path d="M554.23,250.78h4.4v-2.57h-1.84v-2.04h1.05c3.28,0,4.73-2.31,4.73-5.61,0-.65-.06-1.22-.15-1.78-.09-.44-.21-.87-.36-1.22-.15-.39-.36-.74-.6-1.09-.72-.96-1.81-1.52-3.25-1.52h-4.55v2.57h1.2v10.66h-1.2v2.57h.57v.04Zm2.53-13.22h1.26c.99,0,1.63,.39,1.99,1.04,.12,.17,.21,.39,.27,.65,.06,.22,.12,.43,.12,.7,.03,.22,.03,.48,.03,.7,0,1.74-.63,3.13-2.44,3.13h-1.29v-6.22h.06Z" style="fill: #222221;"></path><path d="M570.42,251.08c2.74,0,4.58-2.13,4.58-6.83v-6.7h1.2v-2.52h-4.33v2.57h1.2v6.65c0,3.04-1.02,4.31-2.65,4.31-.45,0-.84-.09-1.2-.3-.18-.09-.33-.22-.48-.39-.18-.17-.33-.43-.45-.7-.3-.7-.48-1.61-.48-2.87v-6.74h1.2v-2.52h-4.34v2.57h1.2v6.7c0,1.61,.21,2.91,.6,3.96,.18,.48,.42,.91,.66,1.26,.24,.3,.48,.61,.78,.83,.72,.48,1.54,.74,2.5,.74Z" style="fill: #222221;"></path><path d="M480.11,235.03v5.18h-2.08l.45,.83h2.2v-5.31l-.57-.7Z" style="fill: #da8f22;"></path><path d="M474.99,247.21v-.7l-.48-.7s0,.35,.03,.61,.06,.35,.12,.48c.03,.04,.06,.13,.09,.17,.06,.13,.18,.26,.27,.35-.03-.04-.03-.13-.03-.22Z" style="fill: #da8f22;"></path><path d="M505.64,247.21v-.7l-.48-.7s0,.35,.03,.61,.06,.35,.12,.48c.03,.04,.06,.13,.09,.17,.09,.13,.18,.26,.27,.35-.03-.04-.03-.13-.03-.22Z" style="fill: #da8f22;"></path><path d="M544.23,217.28h.36c-.03-.13-.06-.26-.09-.43-.18-.91-.51-2.39-1.57-2.74,.24,.48,.36,1.09,.48,1.65,.21,1.04,.36,1.48,.81,1.52Z" style="fill: #da8f22;"></path><path d="M556.48,219.63c-.24-1.13-.78-1.91-1.57-2.35,.3,.48,.54,1.17,.63,2.13,0,.09,.03,.22,.03,.35s0,.3-.03,.35c-.27,3.39-2.5,3.39-3.22,3.39-1.05,0-2.29-.26-3.58-.57-1.44-.35-2.95-.65-4.34-.65h-.12c-.45,.04-.57,.48-.81,1.57-.21,1.04-.54,2.57-1.84,2.57h-35.22c-.42,0-.78-.17-1.05-.52,.27,1,.75,2.09,1.9,2.09h35.22c1.48,0,1.87-1.78,2.08-2.83,.24-1.13,.33-1.26,.57-1.3h.12c1.38,0,2.86,.35,4.3,.65,1.32,.3,2.56,.57,3.61,.57,1.84,0,2.95-.91,3.34-2.74,0,0,.12-.78,.12-1.39-.03-.7-.15-1.3-.15-1.3Z" style="fill: #da8f22;"></path><path d="M503.71,222.29h-.12c-1.41,0-2.89,.35-4.33,.65-1.29,.3-2.53,.57-3.58,.57-.48,0-1.69,0-2.47-1.04,.42,1.74,1.54,2.61,3.31,2.61,1.08,0,2.32-.3,3.61-.57,1.44-.35,2.92-.65,4.3-.65h.09c-.24-1.13-.36-1.52-.81-1.57Z" style="fill: #da8f22;"></path><path d="M538.54,218.37s-.09,.52-.15,.83l-.18,.96h.66l-.18-.96c-.06-.3-.15-.83-.15-.83Z" style="fill: #222221;"></path><path d="M530.5,218.28h-.27v1.17h.36c.27,0,.42-.22,.42-.61,0-.35-.09-.57-.51-.57Z" style="fill: #222221;"></path><path d="M509.4,218.28h-.42v1.3h.39c.3,0,.42-.26,.42-.65,.03-.39-.12-.65-.39-.65Z" style="fill: #222221;"></path><path d="M555.04,219.5c-.15-2.13-1.23-2.74-2.74-2.74-2.14,0-5.21,1.26-7.92,1.26h-.15c-1.72-.13-.81-4.13-2.65-4.13h-35.22c-1.84,0-.9,4-2.65,4.13h-.15c-2.71,0-5.78-1.26-7.92-1.26-1.51,0-2.59,.61-2.74,2.74,0,0-.03,.17,0,.26v.26c.15,2.13,1.23,2.74,2.74,2.74,2.14,0,5.21-1.26,7.92-1.26h.15c1.72,.13,.81,4.13,2.65,4.13h35.22c1.81,0,.9-4,2.65-4.13h.15c2.71,0,5.78,1.26,7.92,1.26,1.54,0,2.59-.61,2.74-2.74,0,0,.03-.17,.03-.26-.03-.09-.03-.26-.03-.26Zm-45.49,1.13h-.57v1.52h-.84v-4.91h1.41c.66,0,1.11,.7,1.11,1.7-.03,1-.45,1.7-1.11,1.7Zm3.97,1.52h-.84v-4.91h.84v4.91Zm4.79,0h-2.65v-.74l1.29-2.65c.15-.3,.27-.43,.27-.43h-1.51v-1.04h2.56v.74l-1.32,2.7c-.15,.3-.27,.43-.27,.43h1.6v1h.03Zm4.58,0h-2.65v-.74l1.29-2.65c.15-.3,.27-.43,.27-.43h-1.51v-1.04h2.56v.74l-1.32,2.7c-.15,.3-.27,.43-.27,.43h1.6v1h.03Zm4.34,0h-2.2v-4.91h2.11v1.04h-1.29v.87h1.02v1.04h-1.02v.91h1.35v1.04h.03Zm4,0l-.6-1.65h-.39v1.65h-.84v-4.91h1.17c.36,0,.51,.04,.66,.13,.39,.22,.63,.7,.63,1.44,0,.52-.18,1.09-.51,1.35,0,0,.06,.09,.12,.3l.66,1.7h-.9Zm3.79,0h-.84v-4.91h.84v4.91Zm4.24,0l-.21-1.04h-1.05l-.21,1.04h-.84l1.14-4.87h.87l1.14,4.87h-.84Z" style="fill: #222221;"></path></g></g></svg>